<mxfile host="app.diagrams.net" agent="Mozilla/5.0 (Windows NT 10.0; Win64; x64) AppleWebKit/537.36 (KHTML, like Gecko) Chrome/131.0.0.0 Safari/537.36 Edg/131.0.0.0" version="24.8.6">
  <diagram name="Page-1" id="kZr25LQIb6FE5z3nM3Py">
    <mxGraphModel dx="1458" dy="737" grid="1" gridSize="10" guides="1" tooltips="1" connect="1" arrows="1" fold="1" page="1" pageScale="1" pageWidth="1100" pageHeight="1700" math="0" shadow="0">
      <root>
        <mxCell id="0" />
        <mxCell id="1" parent="0" />
        <mxCell id="n2RDEtz1VYpOmcO3Zbxp-1" value="" style="rounded=0;whiteSpace=wrap;html=1;" parent="1" vertex="1">
          <mxGeometry x="480" y="400" width="160" height="280" as="geometry" />
        </mxCell>
        <mxCell id="n2RDEtz1VYpOmcO3Zbxp-2" value="NUCLEO-L4_A6ZG" style="text;html=1;align=center;verticalAlign=middle;whiteSpace=wrap;rounded=0;fillColor=#f5f5f5;fontColor=#333333;strokeColor=#666666;" parent="1" vertex="1">
          <mxGeometry x="528.75" y="410" width="60" height="30" as="geometry" />
        </mxCell>
        <mxCell id="n2RDEtz1VYpOmcO3Zbxp-3" value="" style="rounded=0;whiteSpace=wrap;html=1;" parent="1" vertex="1">
          <mxGeometry x="800" y="320" width="200" height="110" as="geometry" />
        </mxCell>
        <mxCell id="n2RDEtz1VYpOmcO3Zbxp-5" value="" style="endArrow=none;html=1;rounded=0;fillColor=#dae8fc;strokeColor=#6c8ebf;strokeWidth=2;" parent="1" edge="1">
          <mxGeometry width="50" height="50" relative="1" as="geometry">
            <mxPoint x="840" y="520" as="sourcePoint" />
            <mxPoint x="840" y="430" as="targetPoint" />
          </mxGeometry>
        </mxCell>
        <mxCell id="n2RDEtz1VYpOmcO3Zbxp-6" value="" style="endArrow=none;html=1;rounded=0;fillColor=#ffe6cc;strokeColor=#d79b00;strokeWidth=2;" parent="1" edge="1">
          <mxGeometry width="50" height="50" relative="1" as="geometry">
            <mxPoint x="860" y="540" as="sourcePoint" />
            <mxPoint x="860" y="430" as="targetPoint" />
          </mxGeometry>
        </mxCell>
        <mxCell id="n2RDEtz1VYpOmcO3Zbxp-7" value="" style="endArrow=none;html=1;rounded=0;fillColor=#dae8fc;strokeColor=#6c8ebf;strokeWidth=2;" parent="1" edge="1">
          <mxGeometry width="50" height="50" relative="1" as="geometry">
            <mxPoint x="880" y="560" as="sourcePoint" />
            <mxPoint x="880" y="430" as="targetPoint" />
          </mxGeometry>
        </mxCell>
        <mxCell id="n2RDEtz1VYpOmcO3Zbxp-8" value="" style="endArrow=none;html=1;rounded=0;fillColor=#ffe6cc;strokeColor=#d79b00;strokeWidth=2;" parent="1" edge="1">
          <mxGeometry width="50" height="50" relative="1" as="geometry">
            <mxPoint x="900" y="580" as="sourcePoint" />
            <mxPoint x="900" y="430" as="targetPoint" />
          </mxGeometry>
        </mxCell>
        <mxCell id="n2RDEtz1VYpOmcO3Zbxp-9" value="" style="endArrow=none;html=1;rounded=0;fillColor=#dae8fc;strokeColor=#6c8ebf;strokeWidth=2;" parent="1" edge="1">
          <mxGeometry width="50" height="50" relative="1" as="geometry">
            <mxPoint x="920" y="600" as="sourcePoint" />
            <mxPoint x="920" y="430" as="targetPoint" />
          </mxGeometry>
        </mxCell>
        <mxCell id="n2RDEtz1VYpOmcO3Zbxp-10" value="" style="endArrow=none;html=1;rounded=0;fillColor=#ffe6cc;strokeColor=#d79b00;strokeWidth=2;" parent="1" edge="1">
          <mxGeometry width="50" height="50" relative="1" as="geometry">
            <mxPoint x="940" y="620" as="sourcePoint" />
            <mxPoint x="940" y="430" as="targetPoint" />
          </mxGeometry>
        </mxCell>
        <mxCell id="n2RDEtz1VYpOmcO3Zbxp-11" value="" style="endArrow=none;html=1;rounded=0;fillColor=#ffe6cc;strokeColor=#d79b00;strokeWidth=2;" parent="1" edge="1">
          <mxGeometry width="50" height="50" relative="1" as="geometry">
            <mxPoint x="960" y="640" as="sourcePoint" />
            <mxPoint x="960" y="430" as="targetPoint" />
          </mxGeometry>
        </mxCell>
        <mxCell id="n2RDEtz1VYpOmcO3Zbxp-12" value="" style="endArrow=none;html=1;rounded=0;" parent="1" edge="1">
          <mxGeometry width="50" height="50" relative="1" as="geometry">
            <mxPoint x="980" y="460" as="sourcePoint" />
            <mxPoint x="980" y="430" as="targetPoint" />
          </mxGeometry>
        </mxCell>
        <mxCell id="n2RDEtz1VYpOmcO3Zbxp-13" value="" style="endArrow=none;html=1;rounded=0;" parent="1" edge="1">
          <mxGeometry width="50" height="50" relative="1" as="geometry">
            <mxPoint x="820" y="460" as="sourcePoint" />
            <mxPoint x="820" y="430" as="targetPoint" />
          </mxGeometry>
        </mxCell>
        <mxCell id="n2RDEtz1VYpOmcO3Zbxp-15" value="4x3 Keypad: COM-14662" style="text;html=1;align=center;verticalAlign=middle;whiteSpace=wrap;rounded=0;fillColor=#f5f5f5;fontColor=#333333;strokeColor=#666666;" parent="1" vertex="1">
          <mxGeometry x="852.5" y="340" width="95" height="30" as="geometry" />
        </mxCell>
        <mxCell id="n2RDEtz1VYpOmcO3Zbxp-17" value="" style="endArrow=none;html=1;rounded=0;exitX=1.006;exitY=0.912;exitDx=0;exitDy=0;exitPerimeter=0;fillColor=#ffe6cc;strokeColor=#d79b00;strokeWidth=2;" parent="1" edge="1">
          <mxGeometry width="50" height="50" relative="1" as="geometry">
            <mxPoint x="640" y="640" as="sourcePoint" />
            <mxPoint x="960" y="641" as="targetPoint" />
          </mxGeometry>
        </mxCell>
        <mxCell id="n2RDEtz1VYpOmcO3Zbxp-18" value="" style="endArrow=none;html=1;rounded=0;exitX=1.006;exitY=0.912;exitDx=0;exitDy=0;exitPerimeter=0;fillColor=#ffe6cc;strokeColor=#d79b00;strokeWidth=2;" parent="1" edge="1">
          <mxGeometry width="50" height="50" relative="1" as="geometry">
            <mxPoint x="640" y="620" as="sourcePoint" />
            <mxPoint x="940" y="621" as="targetPoint" />
          </mxGeometry>
        </mxCell>
        <mxCell id="n2RDEtz1VYpOmcO3Zbxp-19" value="" style="endArrow=none;html=1;rounded=0;exitX=1.006;exitY=0.912;exitDx=0;exitDy=0;exitPerimeter=0;fillColor=#dae8fc;strokeColor=#6c8ebf;strokeWidth=2;" parent="1" edge="1">
          <mxGeometry width="50" height="50" relative="1" as="geometry">
            <mxPoint x="640" y="600" as="sourcePoint" />
            <mxPoint x="920" y="601" as="targetPoint" />
          </mxGeometry>
        </mxCell>
        <mxCell id="n2RDEtz1VYpOmcO3Zbxp-20" value="" style="endArrow=none;html=1;rounded=0;exitX=1.006;exitY=0.912;exitDx=0;exitDy=0;exitPerimeter=0;fillColor=#ffe6cc;strokeColor=#d79b00;strokeWidth=2;" parent="1" edge="1">
          <mxGeometry width="50" height="50" relative="1" as="geometry">
            <mxPoint x="640" y="580" as="sourcePoint" />
            <mxPoint x="900" y="581" as="targetPoint" />
          </mxGeometry>
        </mxCell>
        <mxCell id="n2RDEtz1VYpOmcO3Zbxp-21" value="" style="endArrow=none;html=1;rounded=0;exitX=1.006;exitY=0.912;exitDx=0;exitDy=0;exitPerimeter=0;fillColor=#dae8fc;strokeColor=#6c8ebf;strokeWidth=2;" parent="1" edge="1">
          <mxGeometry width="50" height="50" relative="1" as="geometry">
            <mxPoint x="640" y="559.5" as="sourcePoint" />
            <mxPoint x="880" y="561" as="targetPoint" />
          </mxGeometry>
        </mxCell>
        <mxCell id="n2RDEtz1VYpOmcO3Zbxp-22" value="" style="endArrow=none;html=1;rounded=0;exitX=1.006;exitY=0.912;exitDx=0;exitDy=0;exitPerimeter=0;fillColor=#ffe6cc;strokeColor=#d79b00;strokeWidth=2;" parent="1" edge="1">
          <mxGeometry width="50" height="50" relative="1" as="geometry">
            <mxPoint x="640" y="540" as="sourcePoint" />
            <mxPoint x="860" y="541" as="targetPoint" />
          </mxGeometry>
        </mxCell>
        <mxCell id="n2RDEtz1VYpOmcO3Zbxp-23" value="" style="endArrow=none;html=1;rounded=0;exitX=1.006;exitY=0.912;exitDx=0;exitDy=0;exitPerimeter=0;fillColor=#dae8fc;strokeColor=#6c8ebf;strokeWidth=2;" parent="1" edge="1">
          <mxGeometry width="50" height="50" relative="1" as="geometry">
            <mxPoint x="640" y="520" as="sourcePoint" />
            <mxPoint x="840" y="521" as="targetPoint" />
          </mxGeometry>
        </mxCell>
        <mxCell id="n2RDEtz1VYpOmcO3Zbxp-25" value="Column 2" style="text;html=1;align=center;verticalAlign=middle;whiteSpace=wrap;rounded=0;fillColor=#dae8fc;strokeColor=#6c8ebf;" parent="1" vertex="1">
          <mxGeometry x="740" y="510" width="60" height="10" as="geometry" />
        </mxCell>
        <mxCell id="n2RDEtz1VYpOmcO3Zbxp-27" value="Row 1" style="text;html=1;align=center;verticalAlign=middle;whiteSpace=wrap;rounded=0;fillColor=#ffe6cc;strokeColor=#d79b00;" parent="1" vertex="1">
          <mxGeometry x="740" y="530" width="60" height="10" as="geometry" />
        </mxCell>
        <mxCell id="n2RDEtz1VYpOmcO3Zbxp-28" value="Column 1" style="text;html=1;align=center;verticalAlign=middle;whiteSpace=wrap;rounded=0;fillColor=#dae8fc;strokeColor=#6c8ebf;" parent="1" vertex="1">
          <mxGeometry x="740" y="550" width="60" height="10" as="geometry" />
        </mxCell>
        <mxCell id="n2RDEtz1VYpOmcO3Zbxp-29" value="Row 4" style="text;html=1;align=center;verticalAlign=middle;whiteSpace=wrap;rounded=0;fillColor=#ffe6cc;strokeColor=#d79b00;" parent="1" vertex="1">
          <mxGeometry x="740" y="570" width="60" height="10" as="geometry" />
        </mxCell>
        <mxCell id="n2RDEtz1VYpOmcO3Zbxp-31" value="Column 3" style="text;html=1;align=center;verticalAlign=middle;whiteSpace=wrap;rounded=0;fillColor=#dae8fc;strokeColor=#6c8ebf;" parent="1" vertex="1">
          <mxGeometry x="740" y="590" width="60" height="10" as="geometry" />
        </mxCell>
        <mxCell id="n2RDEtz1VYpOmcO3Zbxp-32" value="Row 3" style="text;html=1;align=center;verticalAlign=middle;whiteSpace=wrap;rounded=0;fillColor=#ffe6cc;strokeColor=#d79b00;" parent="1" vertex="1">
          <mxGeometry x="740" y="610" width="60" height="10" as="geometry" />
        </mxCell>
        <mxCell id="n2RDEtz1VYpOmcO3Zbxp-36" value="Row 2" style="text;html=1;align=center;verticalAlign=middle;whiteSpace=wrap;rounded=0;fillColor=#ffe6cc;strokeColor=#d79b00;" parent="1" vertex="1">
          <mxGeometry x="740" y="630" width="60" height="10" as="geometry" />
        </mxCell>
        <mxCell id="n2RDEtz1VYpOmcO3Zbxp-37" value="1" style="text;html=1;align=center;verticalAlign=middle;whiteSpace=wrap;rounded=0;fillColor=#dae8fc;strokeColor=#6c8ebf;" parent="1" vertex="1">
          <mxGeometry x="830" y="410" width="20" height="20" as="geometry" />
        </mxCell>
        <mxCell id="n2RDEtz1VYpOmcO3Zbxp-41" value="2" style="text;html=1;align=center;verticalAlign=middle;whiteSpace=wrap;rounded=0;fillColor=#ffe6cc;strokeColor=#d79b00;" parent="1" vertex="1">
          <mxGeometry x="850" y="410" width="20" height="20" as="geometry" />
        </mxCell>
        <mxCell id="n2RDEtz1VYpOmcO3Zbxp-42" value="3" style="text;html=1;align=center;verticalAlign=middle;whiteSpace=wrap;rounded=0;fillColor=#dae8fc;strokeColor=#6c8ebf;" parent="1" vertex="1">
          <mxGeometry x="870" y="410" width="20" height="20" as="geometry" />
        </mxCell>
        <mxCell id="n2RDEtz1VYpOmcO3Zbxp-43" value="4" style="text;html=1;align=center;verticalAlign=middle;whiteSpace=wrap;rounded=0;fillColor=#ffe6cc;strokeColor=#d79b00;" parent="1" vertex="1">
          <mxGeometry x="890" y="410" width="20" height="20" as="geometry" />
        </mxCell>
        <mxCell id="n2RDEtz1VYpOmcO3Zbxp-44" value="5" style="text;html=1;align=center;verticalAlign=middle;whiteSpace=wrap;rounded=0;fillColor=#dae8fc;strokeColor=#6c8ebf;" parent="1" vertex="1">
          <mxGeometry x="910" y="410" width="20" height="20" as="geometry" />
        </mxCell>
        <mxCell id="n2RDEtz1VYpOmcO3Zbxp-45" value="6" style="text;html=1;align=center;verticalAlign=middle;whiteSpace=wrap;rounded=0;fillColor=#ffe6cc;strokeColor=#d79b00;" parent="1" vertex="1">
          <mxGeometry x="930" y="410" width="20" height="20" as="geometry" />
        </mxCell>
        <mxCell id="n2RDEtz1VYpOmcO3Zbxp-46" value="7" style="text;html=1;align=center;verticalAlign=middle;whiteSpace=wrap;rounded=0;fillColor=#ffe6cc;strokeColor=#d79b00;" parent="1" vertex="1">
          <mxGeometry x="947.5" y="410" width="20" height="20" as="geometry" />
        </mxCell>
        <mxCell id="n2RDEtz1VYpOmcO3Zbxp-47" value="PD-4" style="text;html=1;align=center;verticalAlign=middle;whiteSpace=wrap;rounded=0;fillColor=#ffe6cc;strokeColor=#d79b00;" parent="1" vertex="1">
          <mxGeometry x="640" y="630" width="40" height="20" as="geometry" />
        </mxCell>
        <mxCell id="n2RDEtz1VYpOmcO3Zbxp-48" value="PD-5" style="text;html=1;align=center;verticalAlign=middle;whiteSpace=wrap;rounded=0;fillColor=#ffe6cc;strokeColor=#d79b00;" parent="1" vertex="1">
          <mxGeometry x="640" y="610" width="40" height="20" as="geometry" />
        </mxCell>
        <mxCell id="n2RDEtz1VYpOmcO3Zbxp-49" value="PD-2" style="text;html=1;align=center;verticalAlign=middle;whiteSpace=wrap;rounded=0;fillColor=#dae8fc;strokeColor=#6c8ebf;" parent="1" vertex="1">
          <mxGeometry x="640" y="590" width="40" height="20" as="geometry" />
        </mxCell>
        <mxCell id="n2RDEtz1VYpOmcO3Zbxp-50" value="PD-6" style="text;html=1;align=center;verticalAlign=middle;whiteSpace=wrap;rounded=0;fillColor=#ffe6cc;strokeColor=#d79b00;" parent="1" vertex="1">
          <mxGeometry x="640" y="570" width="40" height="20" as="geometry" />
        </mxCell>
        <mxCell id="n2RDEtz1VYpOmcO3Zbxp-51" value="PD-0" style="text;html=1;align=center;verticalAlign=middle;whiteSpace=wrap;rounded=0;fillColor=#dae8fc;strokeColor=#6c8ebf;" parent="1" vertex="1">
          <mxGeometry x="640" y="550" width="40" height="20" as="geometry" />
        </mxCell>
        <mxCell id="n2RDEtz1VYpOmcO3Zbxp-52" value="PD-3" style="text;html=1;align=center;verticalAlign=middle;whiteSpace=wrap;rounded=0;fillColor=#ffe6cc;strokeColor=#d79b00;" parent="1" vertex="1">
          <mxGeometry x="640" y="530" width="40" height="20" as="geometry" />
        </mxCell>
        <mxCell id="n2RDEtz1VYpOmcO3Zbxp-53" value="PD-1&amp;nbsp;" style="text;html=1;align=center;verticalAlign=middle;whiteSpace=wrap;rounded=0;fillColor=#dae8fc;strokeColor=#6c8ebf;" parent="1" vertex="1">
          <mxGeometry x="640" y="510" width="40" height="20" as="geometry" />
        </mxCell>
        <mxCell id="sdBytlnqR-r4knWq5i0C-1" value="PB-8" style="text;html=1;align=center;verticalAlign=middle;whiteSpace=wrap;rounded=0;fillColor=#1ba1e2;strokeColor=#006EAF;fontColor=#ffffff;" vertex="1" parent="1">
          <mxGeometry x="440" y="580" width="40" height="20" as="geometry" />
        </mxCell>
        <mxCell id="sdBytlnqR-r4knWq5i0C-9" value="PB-9" style="text;html=1;align=center;verticalAlign=middle;whiteSpace=wrap;rounded=0;fillColor=#6d8764;strokeColor=#3A5431;fontColor=#ffffff;" vertex="1" parent="1">
          <mxGeometry x="440" y="600" width="40" height="20" as="geometry" />
        </mxCell>
        <mxCell id="sdBytlnqR-r4knWq5i0C-11" value="" style="rounded=0;whiteSpace=wrap;html=1;" vertex="1" parent="1">
          <mxGeometry x="120" y="480" width="140" height="200" as="geometry" />
        </mxCell>
        <mxCell id="sdBytlnqR-r4knWq5i0C-12" value="Heltec&lt;div&gt;ESP32 S3&lt;/div&gt;" style="text;html=1;align=center;verticalAlign=middle;whiteSpace=wrap;rounded=0;fillColor=#f5f5f5;fontColor=#333333;strokeColor=#666666;" vertex="1" parent="1">
          <mxGeometry x="150" y="490" width="60" height="30" as="geometry" />
        </mxCell>
        <mxCell id="sdBytlnqR-r4knWq5i0C-13" value="GPIO-20" style="text;html=1;align=center;verticalAlign=middle;whiteSpace=wrap;rounded=0;fillColor=#1ba1e2;strokeColor=#006EAF;fontColor=#ffffff;" vertex="1" parent="1">
          <mxGeometry x="260" y="580" width="50" height="20" as="geometry" />
        </mxCell>
        <mxCell id="sdBytlnqR-r4knWq5i0C-14" value="GPIO-19" style="text;html=1;align=center;verticalAlign=middle;whiteSpace=wrap;rounded=0;fillColor=#6d8764;strokeColor=#3A5431;fontColor=#ffffff;" vertex="1" parent="1">
          <mxGeometry x="260" y="600" width="50" height="20" as="geometry" />
        </mxCell>
        <mxCell id="sdBytlnqR-r4knWq5i0C-15" value="5V" style="text;html=1;align=center;verticalAlign=middle;whiteSpace=wrap;rounded=0;fillColor=#ff0000;strokeColor=#d79b00;gradientColor=none;" vertex="1" parent="1">
          <mxGeometry x="440" y="530" width="40" height="20" as="geometry" />
        </mxCell>
        <mxCell id="sdBytlnqR-r4knWq5i0C-16" value="3.3V" style="text;html=1;align=center;verticalAlign=middle;whiteSpace=wrap;rounded=0;fillColor=#ff0000;strokeColor=#d79b00;" vertex="1" parent="1">
          <mxGeometry x="440" y="660" width="40" height="20" as="geometry" />
        </mxCell>
        <mxCell id="sdBytlnqR-r4knWq5i0C-17" value="GND" style="text;html=1;align=center;verticalAlign=middle;whiteSpace=wrap;rounded=0;fillColor=#60a917;strokeColor=#2D7600;fontColor=#ffffff;" vertex="1" parent="1">
          <mxGeometry x="440" y="550" width="40" height="20" as="geometry" />
        </mxCell>
        <mxCell id="sdBytlnqR-r4knWq5i0C-18" value="" style="rounded=0;whiteSpace=wrap;html=1;" vertex="1" parent="1">
          <mxGeometry x="555" y="990" width="150" height="90" as="geometry" />
        </mxCell>
        <mxCell id="sdBytlnqR-r4knWq5i0C-19" value="" style="ellipse;whiteSpace=wrap;html=1;aspect=fixed;" vertex="1" parent="1">
          <mxGeometry x="585" y="1040" width="30" height="30" as="geometry" />
        </mxCell>
        <mxCell id="sdBytlnqR-r4knWq5i0C-20" value="" style="ellipse;whiteSpace=wrap;html=1;aspect=fixed;" vertex="1" parent="1">
          <mxGeometry x="650" y="1040" width="30" height="30" as="geometry" />
        </mxCell>
        <mxCell id="sdBytlnqR-r4knWq5i0C-21" value="Rangefinder: HC-SR04" style="text;html=1;align=center;verticalAlign=middle;whiteSpace=wrap;rounded=0;strokeColor=default;" vertex="1" parent="1">
          <mxGeometry x="588.75" y="990" width="82.5" height="40" as="geometry" />
        </mxCell>
        <mxCell id="sdBytlnqR-r4knWq5i0C-25" value="" style="endArrow=none;html=1;rounded=0;exitX=1.006;exitY=0.912;exitDx=0;exitDy=0;exitPerimeter=0;fillColor=#1ba1e2;strokeColor=#006EAF;strokeWidth=2;entryX=0;entryY=0.5;entryDx=0;entryDy=0;" edge="1" parent="1" target="sdBytlnqR-r4knWq5i0C-1">
          <mxGeometry width="50" height="50" relative="1" as="geometry">
            <mxPoint x="310" y="589" as="sourcePoint" />
            <mxPoint x="400" y="590" as="targetPoint" />
          </mxGeometry>
        </mxCell>
        <mxCell id="sdBytlnqR-r4knWq5i0C-26" value="" style="endArrow=none;html=1;rounded=0;exitX=1.006;exitY=0.912;exitDx=0;exitDy=0;exitPerimeter=0;fillColor=#6d8764;strokeColor=#3A5431;strokeWidth=2;entryX=0;entryY=0.5;entryDx=0;entryDy=0;" edge="1" parent="1">
          <mxGeometry width="50" height="50" relative="1" as="geometry">
            <mxPoint x="310" y="609.5" as="sourcePoint" />
            <mxPoint x="440" y="610.5" as="targetPoint" />
          </mxGeometry>
        </mxCell>
        <mxCell id="sdBytlnqR-r4knWq5i0C-29" style="rounded=0;orthogonalLoop=1;jettySize=auto;html=1;entryX=0;entryY=0.5;entryDx=0;entryDy=0;edgeStyle=elbowEdgeStyle;endArrow=none;endFill=0;fillColor=#e51400;strokeColor=#B20000;" edge="1" parent="1" source="sdBytlnqR-r4knWq5i0C-28" target="sdBytlnqR-r4knWq5i0C-15">
          <mxGeometry relative="1" as="geometry">
            <Array as="points" />
          </mxGeometry>
        </mxCell>
        <mxCell id="sdBytlnqR-r4knWq5i0C-28" value="5V" style="text;html=1;align=center;verticalAlign=middle;whiteSpace=wrap;rounded=0;fillColor=#ff0000;strokeColor=#d79b00;gradientColor=none;" vertex="1" parent="1">
          <mxGeometry x="260" y="530" width="40" height="20" as="geometry" />
        </mxCell>
        <mxCell id="sdBytlnqR-r4knWq5i0C-30" value="JP2-2" style="text;html=1;align=center;verticalAlign=middle;whiteSpace=wrap;rounded=0;fillColor=#ff0000;strokeColor=#d79b00;gradientColor=none;" vertex="1" parent="1">
          <mxGeometry x="210" y="530" width="50" height="20" as="geometry" />
        </mxCell>
        <mxCell id="sdBytlnqR-r4knWq5i0C-31" value="JP2-17" style="text;html=1;align=center;verticalAlign=middle;whiteSpace=wrap;rounded=0;fillColor=#1ba1e2;strokeColor=#006EAF;fontColor=#ffffff;" vertex="1" parent="1">
          <mxGeometry x="210" y="580" width="50" height="20" as="geometry" />
        </mxCell>
        <mxCell id="sdBytlnqR-r4knWq5i0C-36" style="edgeStyle=orthogonalEdgeStyle;rounded=0;orthogonalLoop=1;jettySize=auto;html=1;entryX=0;entryY=0.5;entryDx=0;entryDy=0;endArrow=none;endFill=0;fillColor=#60a917;strokeColor=#2D7600;" edge="1" parent="1" source="sdBytlnqR-r4knWq5i0C-35" target="sdBytlnqR-r4knWq5i0C-17">
          <mxGeometry relative="1" as="geometry">
            <Array as="points">
              <mxPoint x="410" y="560" />
              <mxPoint x="410" y="560" />
            </Array>
          </mxGeometry>
        </mxCell>
        <mxCell id="sdBytlnqR-r4knWq5i0C-35" value="GND" style="text;html=1;align=center;verticalAlign=middle;whiteSpace=wrap;rounded=0;fillColor=#60A917;strokeColor=#60A917;fontColor=#ffffff;" vertex="1" parent="1">
          <mxGeometry x="260" y="550" width="40" height="20" as="geometry" />
        </mxCell>
        <mxCell id="sdBytlnqR-r4knWq5i0C-37" value="5&lt;div&gt;V&lt;/div&gt;" style="text;html=1;align=center;verticalAlign=middle;whiteSpace=wrap;rounded=0;fillColor=#ff0000;strokeColor=#d79b00;gradientColor=none;direction=south;" vertex="1" parent="1">
          <mxGeometry x="610" y="1080" width="10" height="60" as="geometry" />
        </mxCell>
        <mxCell id="sdBytlnqR-r4knWq5i0C-38" value="G&lt;div&gt;N&lt;/div&gt;&lt;div&gt;D&lt;/div&gt;" style="text;html=1;align=center;verticalAlign=middle;whiteSpace=wrap;rounded=0;fillColor=#60a917;strokeColor=#2D7600;fontColor=#ffffff;direction=south;" vertex="1" parent="1">
          <mxGeometry x="640" y="1080" width="10" height="60" as="geometry" />
        </mxCell>
        <mxCell id="sdBytlnqR-r4knWq5i0C-39" value="T&lt;div&gt;R&lt;/div&gt;&lt;div&gt;I&lt;/div&gt;&lt;div&gt;G&lt;/div&gt;" style="text;html=1;align=center;verticalAlign=middle;whiteSpace=wrap;rounded=0;fillColor=#ffe6cc;strokeColor=#d79b00;direction=south;" vertex="1" parent="1">
          <mxGeometry x="620" y="1080" width="10" height="60" as="geometry" />
        </mxCell>
        <mxCell id="sdBytlnqR-r4knWq5i0C-41" value="E&lt;div&gt;C&lt;/div&gt;&lt;div&gt;H&lt;/div&gt;&lt;div&gt;O&lt;/div&gt;" style="text;html=1;align=center;verticalAlign=middle;whiteSpace=wrap;rounded=0;fillColor=#1ba1e2;strokeColor=#006EAF;fontColor=#ffffff;direction=south;gradientColor=none;" vertex="1" parent="1">
          <mxGeometry x="630" y="1080" width="10" height="60" as="geometry" />
        </mxCell>
        <mxCell id="sdBytlnqR-r4knWq5i0C-45" value="" style="endArrow=none;html=1;rounded=0;fontSize=12;startSize=8;endSize=8;curved=1;fillColor=#b1ddf0;strokeColor=#10739e;entryX=0.5;entryY=1;entryDx=0;entryDy=0;exitX=0;exitY=0.5;exitDx=0;exitDy=0;exitPerimeter=0;" edge="1" parent="1" source="sdBytlnqR-r4knWq5i0C-58" target="sdBytlnqR-r4knWq5i0C-49">
          <mxGeometry width="50" height="50" relative="1" as="geometry">
            <mxPoint x="353" y="630" as="sourcePoint" />
            <mxPoint x="352.65" y="572.5" as="targetPoint" />
          </mxGeometry>
        </mxCell>
        <mxCell id="sdBytlnqR-r4knWq5i0C-49" value="" style="shape=ellipse;fillColor=#b1ddf0;strokeColor=#10739e;html=1;sketch=0;" vertex="1" parent="1">
          <mxGeometry x="350.75" y="587.5" width="5" height="5" as="geometry" />
        </mxCell>
        <mxCell id="sdBytlnqR-r4knWq5i0C-56" value="" style="pointerEvents=1;verticalLabelPosition=bottom;shadow=0;dashed=0;align=center;html=1;verticalAlign=top;shape=mxgraph.electrical.resistors.resistor_2;direction=south;" vertex="1" parent="1">
          <mxGeometry x="401.75" y="620" width="10" height="41" as="geometry" />
        </mxCell>
        <mxCell id="sdBytlnqR-r4knWq5i0C-57" value="2 kΩ" style="text;html=1;align=center;verticalAlign=middle;whiteSpace=wrap;rounded=0;fontSize=16;" vertex="1" parent="1">
          <mxGeometry x="361.75" y="625.5" width="40" height="30" as="geometry" />
        </mxCell>
        <mxCell id="sdBytlnqR-r4knWq5i0C-58" value="" style="pointerEvents=1;verticalLabelPosition=bottom;shadow=0;dashed=0;align=center;html=1;verticalAlign=top;shape=mxgraph.electrical.resistors.resistor_2;direction=south;" vertex="1" parent="1">
          <mxGeometry x="348.25" y="622" width="10" height="41" as="geometry" />
        </mxCell>
        <mxCell id="sdBytlnqR-r4knWq5i0C-59" value="2 kΩ" style="text;html=1;align=center;verticalAlign=middle;whiteSpace=wrap;rounded=0;fontSize=16;" vertex="1" parent="1">
          <mxGeometry x="308.25" y="625.5" width="40" height="30" as="geometry" />
        </mxCell>
        <mxCell id="sdBytlnqR-r4knWq5i0C-68" style="rounded=0;orthogonalLoop=1;jettySize=auto;html=1;entryX=0;entryY=0.5;entryDx=0;entryDy=0;edgeStyle=elbowEdgeStyle;endArrow=none;endFill=0;fillColor=#e51400;strokeColor=#B20000;exitX=1;exitY=0.5;exitDx=0;exitDy=0;exitPerimeter=0;" edge="1" parent="1" source="sdBytlnqR-r4knWq5i0C-58">
          <mxGeometry relative="1" as="geometry">
            <mxPoint x="300" y="720" as="sourcePoint" />
            <mxPoint x="440" y="670" as="targetPoint" />
            <Array as="points">
              <mxPoint x="353" y="670" />
            </Array>
          </mxGeometry>
        </mxCell>
        <mxCell id="sdBytlnqR-r4knWq5i0C-69" style="rounded=0;orthogonalLoop=1;jettySize=auto;html=1;edgeStyle=elbowEdgeStyle;endArrow=none;endFill=0;fillColor=#e51400;strokeColor=#B20000;exitX=1;exitY=0.5;exitDx=0;exitDy=0;exitPerimeter=0;" edge="1" parent="1">
          <mxGeometry relative="1" as="geometry">
            <mxPoint x="407" y="661" as="sourcePoint" />
            <mxPoint x="407" y="670" as="targetPoint" />
            <Array as="points">
              <mxPoint x="407" y="668" />
            </Array>
          </mxGeometry>
        </mxCell>
        <mxCell id="sdBytlnqR-r4knWq5i0C-70" value="" style="endArrow=none;html=1;rounded=0;fontSize=12;startSize=8;endSize=8;curved=1;fillColor=#b0e3e6;strokeColor=#3A5431;entryX=0.5;entryY=1;entryDx=0;entryDy=0;exitX=0.064;exitY=0.497;exitDx=0;exitDy=0;exitPerimeter=0;" edge="1" parent="1" target="sdBytlnqR-r4knWq5i0C-71" source="sdBytlnqR-r4knWq5i0C-56">
          <mxGeometry width="50" height="50" relative="1" as="geometry">
            <mxPoint x="406.75" y="630" as="sourcePoint" />
            <mxPoint x="406.15" y="595" as="targetPoint" />
            <Array as="points">
              <mxPoint x="407" y="620" />
            </Array>
          </mxGeometry>
        </mxCell>
        <mxCell id="sdBytlnqR-r4knWq5i0C-71" value="" style="shape=ellipse;fillColor=#b0e3e6;strokeColor=#3A5431;html=1;sketch=0;" vertex="1" parent="1">
          <mxGeometry x="404.25" y="607.5" width="5" height="5" as="geometry" />
        </mxCell>
        <mxCell id="sdBytlnqR-r4knWq5i0C-72" value="CN9-8" style="text;html=1;align=center;verticalAlign=middle;whiteSpace=wrap;rounded=0;fillColor=#ffe6cc;strokeColor=#d79b00;" vertex="1" parent="1">
          <mxGeometry x="590" y="630" width="50" height="20" as="geometry" />
        </mxCell>
        <mxCell id="sdBytlnqR-r4knWq5i0C-73" value="CN9-6" style="text;html=1;align=center;verticalAlign=middle;whiteSpace=wrap;rounded=0;fillColor=#ffe6cc;strokeColor=#d79b00;" vertex="1" parent="1">
          <mxGeometry x="590" y="610" width="50" height="20" as="geometry" />
        </mxCell>
        <mxCell id="sdBytlnqR-r4knWq5i0C-74" value="CN8-12" style="text;html=1;align=center;verticalAlign=middle;whiteSpace=wrap;rounded=0;fillColor=#dae8fc;strokeColor=#6c8ebf;" vertex="1" parent="1">
          <mxGeometry x="590" y="590" width="50" height="20" as="geometry" />
        </mxCell>
        <mxCell id="sdBytlnqR-r4knWq5i0C-75" value="CN9-4" style="text;html=1;align=center;verticalAlign=middle;whiteSpace=wrap;rounded=0;fillColor=#ffe6cc;strokeColor=#d79b00;" vertex="1" parent="1">
          <mxGeometry x="590" y="570" width="50" height="20" as="geometry" />
        </mxCell>
        <mxCell id="sdBytlnqR-r4knWq5i0C-76" value="CN9-25" style="text;html=1;align=center;verticalAlign=middle;whiteSpace=wrap;rounded=0;fillColor=#dae8fc;strokeColor=#6c8ebf;" vertex="1" parent="1">
          <mxGeometry x="590" y="550" width="50" height="20" as="geometry" />
        </mxCell>
        <mxCell id="sdBytlnqR-r4knWq5i0C-77" value="CN9-10" style="text;html=1;align=center;verticalAlign=middle;whiteSpace=wrap;rounded=0;fillColor=#ffe6cc;strokeColor=#d79b00;" vertex="1" parent="1">
          <mxGeometry x="590" y="530" width="50" height="20" as="geometry" />
        </mxCell>
        <mxCell id="sdBytlnqR-r4knWq5i0C-78" value="CN9-27" style="text;html=1;align=center;verticalAlign=middle;whiteSpace=wrap;rounded=0;fillColor=#dae8fc;strokeColor=#6c8ebf;" vertex="1" parent="1">
          <mxGeometry x="590" y="510" width="50" height="20" as="geometry" />
        </mxCell>
        <mxCell id="sdBytlnqR-r4knWq5i0C-79" value="CN7-2" style="text;html=1;align=center;verticalAlign=middle;whiteSpace=wrap;rounded=0;fillColor=#1ba1e2;strokeColor=#006EAF;fontColor=#ffffff;" vertex="1" parent="1">
          <mxGeometry x="480" y="580" width="40" height="20" as="geometry" />
        </mxCell>
        <mxCell id="sdBytlnqR-r4knWq5i0C-80" value="CN7-4" style="text;html=1;align=center;verticalAlign=middle;whiteSpace=wrap;rounded=0;fillColor=#6d8764;strokeColor=#3A5431;fontColor=#ffffff;" vertex="1" parent="1">
          <mxGeometry x="480" y="600" width="40" height="20" as="geometry" />
        </mxCell>
        <mxCell id="sdBytlnqR-r4knWq5i0C-81" value="CN8-9" style="text;html=1;align=center;verticalAlign=middle;whiteSpace=wrap;rounded=0;fillColor=#ff0000;strokeColor=#d79b00;gradientColor=none;" vertex="1" parent="1">
          <mxGeometry x="480" y="530" width="40" height="20" as="geometry" />
        </mxCell>
        <mxCell id="sdBytlnqR-r4knWq5i0C-82" value="CN8-7" style="text;html=1;align=center;verticalAlign=middle;whiteSpace=wrap;rounded=0;fillColor=#ff0000;strokeColor=#d79b00;" vertex="1" parent="1">
          <mxGeometry x="480" y="660" width="40" height="20" as="geometry" />
        </mxCell>
        <mxCell id="sdBytlnqR-r4knWq5i0C-83" value="CN7-8" style="text;html=1;align=center;verticalAlign=middle;whiteSpace=wrap;rounded=0;fillColor=#60a917;strokeColor=#2D7600;fontColor=#ffffff;" vertex="1" parent="1">
          <mxGeometry x="480" y="550" width="40" height="20" as="geometry" />
        </mxCell>
        <mxCell id="sdBytlnqR-r4knWq5i0C-84" value="JP2-1" style="text;html=1;align=center;verticalAlign=middle;whiteSpace=wrap;rounded=0;fillColor=#60A917;strokeColor=#60A917;fontColor=#ffffff;" vertex="1" parent="1">
          <mxGeometry x="210" y="550" width="50" height="20" as="geometry" />
        </mxCell>
        <mxCell id="sdBytlnqR-r4knWq5i0C-85" value="JP2-18" style="text;html=1;align=center;verticalAlign=middle;whiteSpace=wrap;rounded=0;fillColor=#6d8764;strokeColor=#3A5431;fontColor=#ffffff;" vertex="1" parent="1">
          <mxGeometry x="210" y="600" width="50" height="20" as="geometry" />
        </mxCell>
        <mxCell id="sdBytlnqR-r4knWq5i0C-104" value="" style="rounded=0;whiteSpace=wrap;html=1;" vertex="1" parent="1">
          <mxGeometry x="130" y="530" width="70" height="110" as="geometry" />
        </mxCell>
        <mxCell id="sdBytlnqR-r4knWq5i0C-138" value="" style="verticalLabelPosition=bottom;shadow=0;dashed=0;align=center;html=1;verticalAlign=top;shape=mxgraph.electrical.opto_electronics.led_2;pointerEvents=1;strokeColor=#6c8ebf;fillColor=#dae8fc;" vertex="1" parent="1">
          <mxGeometry x="537.5" y="477.25" width="26" height="18" as="geometry" />
        </mxCell>
        <mxCell id="sdBytlnqR-r4knWq5i0C-139" value="" style="rounded=0;whiteSpace=wrap;html=1;fillColor=none;strokeColor=#6c8ebf;" vertex="1" parent="1">
          <mxGeometry x="534.5" y="473.5" width="32" height="25.5" as="geometry" />
        </mxCell>
        <mxCell id="sdBytlnqR-r4knWq5i0C-140" value="PB-7" style="text;html=1;align=center;verticalAlign=middle;whiteSpace=wrap;rounded=0;fontSize=16;fillColor=#dae8fc;strokeColor=#6c8ebf;" vertex="1" parent="1">
          <mxGeometry x="494.5" y="476.25" width="40" height="20" as="geometry" />
        </mxCell>
        <mxCell id="sdBytlnqR-r4knWq5i0C-141" value="" style="rounded=0;whiteSpace=wrap;html=1;fillColor=none;" vertex="1" parent="1">
          <mxGeometry x="481.5" y="450" width="85" height="49" as="geometry" />
        </mxCell>
        <mxCell id="sdBytlnqR-r4knWq5i0C-143" value="Internal LED" style="text;html=1;align=center;verticalAlign=middle;whiteSpace=wrap;rounded=0;" vertex="1" parent="1">
          <mxGeometry x="480" y="450" width="77" height="20" as="geometry" />
        </mxCell>
        <mxCell id="sdBytlnqR-r4knWq5i0C-147" value="SDA" style="text;html=1;align=center;verticalAlign=middle;whiteSpace=wrap;rounded=0;fillColor=#dae8fc;strokeColor=#3A5431;" vertex="1" parent="1">
          <mxGeometry x="364.25" y="600" width="35" height="10" as="geometry" />
        </mxCell>
        <mxCell id="sdBytlnqR-r4knWq5i0C-148" value="SCL" style="text;html=1;align=center;verticalAlign=middle;whiteSpace=wrap;rounded=0;fillColor=#dae8fc;strokeColor=#006EAF;" vertex="1" parent="1">
          <mxGeometry x="364" y="579" width="35" height="10" as="geometry" />
        </mxCell>
        <mxCell id="sdBytlnqR-r4knWq5i0C-149" value="S&lt;div&gt;D&lt;/div&gt;&lt;div&gt;A&lt;/div&gt;" style="text;html=1;align=center;verticalAlign=middle;whiteSpace=wrap;rounded=0;fillColor=#1ba1e2;strokeColor=#006EAF;fontColor=#ffffff;direction=south;" vertex="1" parent="1">
          <mxGeometry x="150" y="600" width="10" height="40" as="geometry" />
        </mxCell>
        <mxCell id="sdBytlnqR-r4knWq5i0C-150" value="S&lt;div&gt;C&lt;/div&gt;&lt;div&gt;L&lt;/div&gt;" style="text;html=1;align=center;verticalAlign=middle;whiteSpace=wrap;rounded=0;fillColor=#ffe6cc;strokeColor=#d79b00;direction=south;" vertex="1" parent="1">
          <mxGeometry x="170" y="600" width="10" height="40" as="geometry" />
        </mxCell>
        <mxCell id="sdBytlnqR-r4knWq5i0C-151" value="OLED&amp;nbsp;&lt;div&gt;(Built-in Display)&lt;/div&gt;" style="text;html=1;align=center;verticalAlign=middle;whiteSpace=wrap;rounded=0;" vertex="1" parent="1">
          <mxGeometry x="140" y="545" width="50" height="30" as="geometry" />
        </mxCell>
        <mxCell id="sdBytlnqR-r4knWq5i0C-152" value="G&lt;span style=&quot;background-color: initial;&quot;&gt;P&lt;/span&gt;&lt;span style=&quot;background-color: initial;&quot;&gt;I&lt;/span&gt;&lt;span style=&quot;background-color: initial;&quot;&gt;O&lt;/span&gt;&lt;div&gt;&lt;span style=&quot;background-color: initial;&quot;&gt;-&lt;/span&gt;&lt;span style=&quot;background-color: initial;&quot;&gt;4&lt;/span&gt;&lt;/div&gt;" style="text;html=1;align=center;verticalAlign=middle;whiteSpace=wrap;rounded=0;fillColor=#1ba1e2;strokeColor=#006EAF;fontColor=#ffffff;direction=south;" vertex="1" parent="1">
          <mxGeometry x="130" y="640" width="30" height="30" as="geometry" />
        </mxCell>
        <mxCell id="sdBytlnqR-r4knWq5i0C-153" value="GPIO&lt;div&gt;-15&lt;/div&gt;" style="text;html=1;align=center;verticalAlign=middle;whiteSpace=wrap;rounded=0;fillColor=#ffe6cc;strokeColor=#d79b00;direction=south;" vertex="1" parent="1">
          <mxGeometry x="170" y="640" width="30" height="30" as="geometry" />
        </mxCell>
        <mxCell id="sdBytlnqR-r4knWq5i0C-154" value="" style="rounded=0;whiteSpace=wrap;html=1;" vertex="1" parent="1">
          <mxGeometry x="304.5" y="1130" width="140" height="200" as="geometry" />
        </mxCell>
        <mxCell id="sdBytlnqR-r4knWq5i0C-155" value="Heltec&lt;div&gt;ESP32 S3&lt;/div&gt;" style="text;html=1;align=center;verticalAlign=middle;whiteSpace=wrap;rounded=0;fillColor=#f5f5f5;fontColor=#333333;strokeColor=#666666;" vertex="1" parent="1">
          <mxGeometry x="334.5" y="1140" width="60" height="30" as="geometry" />
        </mxCell>
        <mxCell id="sdBytlnqR-r4knWq5i0C-156" value="GPIO-48" style="text;html=1;align=center;verticalAlign=middle;whiteSpace=wrap;rounded=0;fillColor=#1ba1e2;strokeColor=#006EAF;fontColor=#ffffff;" vertex="1" parent="1">
          <mxGeometry x="444.5" y="1230" width="50" height="20" as="geometry" />
        </mxCell>
        <mxCell id="sdBytlnqR-r4knWq5i0C-157" value="GPIO-47" style="text;html=1;align=center;verticalAlign=middle;whiteSpace=wrap;rounded=0;fillColor=#6d8764;strokeColor=#3A5431;fontColor=#ffffff;" vertex="1" parent="1">
          <mxGeometry x="444.5" y="1250" width="50" height="20" as="geometry" />
        </mxCell>
        <mxCell id="sdBytlnqR-r4knWq5i0C-158" value="5V" style="text;html=1;align=center;verticalAlign=middle;whiteSpace=wrap;rounded=0;fillColor=#ff0000;strokeColor=#d79b00;gradientColor=none;" vertex="1" parent="1">
          <mxGeometry x="444.5" y="1180" width="40" height="20" as="geometry" />
        </mxCell>
        <mxCell id="sdBytlnqR-r4knWq5i0C-159" value="JP2-2" style="text;html=1;align=center;verticalAlign=middle;whiteSpace=wrap;rounded=0;fillColor=#ff0000;strokeColor=#d79b00;gradientColor=none;" vertex="1" parent="1">
          <mxGeometry x="394.5" y="1180" width="50" height="20" as="geometry" />
        </mxCell>
        <mxCell id="sdBytlnqR-r4knWq5i0C-160" value="JP2-14" style="text;html=1;align=center;verticalAlign=middle;whiteSpace=wrap;rounded=0;fillColor=#1ba1e2;strokeColor=#006EAF;fontColor=#ffffff;" vertex="1" parent="1">
          <mxGeometry x="394.5" y="1230" width="50" height="20" as="geometry" />
        </mxCell>
        <mxCell id="sdBytlnqR-r4knWq5i0C-161" value="GND" style="text;html=1;align=center;verticalAlign=middle;whiteSpace=wrap;rounded=0;fillColor=#60A917;strokeColor=#60A917;fontColor=#ffffff;" vertex="1" parent="1">
          <mxGeometry x="444.5" y="1200" width="40" height="20" as="geometry" />
        </mxCell>
        <mxCell id="sdBytlnqR-r4knWq5i0C-162" value="JP2-1" style="text;html=1;align=center;verticalAlign=middle;whiteSpace=wrap;rounded=0;fillColor=#60A917;strokeColor=#60A917;fontColor=#ffffff;" vertex="1" parent="1">
          <mxGeometry x="394.5" y="1200" width="50" height="20" as="geometry" />
        </mxCell>
        <mxCell id="sdBytlnqR-r4knWq5i0C-163" value="JP2-13" style="text;html=1;align=center;verticalAlign=middle;whiteSpace=wrap;rounded=0;fillColor=#6d8764;strokeColor=#3A5431;fontColor=#ffffff;" vertex="1" parent="1">
          <mxGeometry x="394.5" y="1250" width="50" height="20" as="geometry" />
        </mxCell>
        <mxCell id="sdBytlnqR-r4knWq5i0C-164" value="" style="rounded=0;whiteSpace=wrap;html=1;" vertex="1" parent="1">
          <mxGeometry x="314.5" y="1180" width="70" height="110" as="geometry" />
        </mxCell>
        <mxCell id="sdBytlnqR-r4knWq5i0C-165" value="S&lt;div&gt;D&lt;/div&gt;&lt;div&gt;A&lt;/div&gt;" style="text;html=1;align=center;verticalAlign=middle;whiteSpace=wrap;rounded=0;fillColor=#1ba1e2;strokeColor=#006EAF;fontColor=#ffffff;direction=south;" vertex="1" parent="1">
          <mxGeometry x="334.5" y="1250" width="10" height="40" as="geometry" />
        </mxCell>
        <mxCell id="sdBytlnqR-r4knWq5i0C-166" value="S&lt;div&gt;C&lt;/div&gt;&lt;div&gt;L&lt;/div&gt;" style="text;html=1;align=center;verticalAlign=middle;whiteSpace=wrap;rounded=0;fillColor=#ffe6cc;strokeColor=#d79b00;direction=south;" vertex="1" parent="1">
          <mxGeometry x="354.5" y="1250" width="10" height="40" as="geometry" />
        </mxCell>
        <mxCell id="sdBytlnqR-r4knWq5i0C-167" value="OLED&amp;nbsp;&lt;div&gt;(Built-in Display)&lt;/div&gt;" style="text;html=1;align=center;verticalAlign=middle;whiteSpace=wrap;rounded=0;" vertex="1" parent="1">
          <mxGeometry x="324.5" y="1195" width="50" height="30" as="geometry" />
        </mxCell>
        <mxCell id="sdBytlnqR-r4knWq5i0C-168" value="G&lt;span style=&quot;background-color: initial;&quot;&gt;P&lt;/span&gt;&lt;span style=&quot;background-color: initial;&quot;&gt;I&lt;/span&gt;&lt;span style=&quot;background-color: initial;&quot;&gt;O&lt;/span&gt;&lt;div&gt;&lt;span style=&quot;background-color: initial;&quot;&gt;-&lt;/span&gt;&lt;span style=&quot;background-color: initial;&quot;&gt;4&lt;/span&gt;&lt;/div&gt;" style="text;html=1;align=center;verticalAlign=middle;whiteSpace=wrap;rounded=0;fillColor=#1ba1e2;strokeColor=#006EAF;fontColor=#ffffff;direction=south;" vertex="1" parent="1">
          <mxGeometry x="314.5" y="1290" width="30" height="30" as="geometry" />
        </mxCell>
        <mxCell id="sdBytlnqR-r4knWq5i0C-169" value="GPIO&lt;div&gt;-15&lt;/div&gt;" style="text;html=1;align=center;verticalAlign=middle;whiteSpace=wrap;rounded=0;fillColor=#ffe6cc;strokeColor=#d79b00;direction=south;" vertex="1" parent="1">
          <mxGeometry x="354.5" y="1290" width="30" height="30" as="geometry" />
        </mxCell>
        <mxCell id="sdBytlnqR-r4knWq5i0C-170" style="rounded=0;orthogonalLoop=1;jettySize=auto;html=1;edgeStyle=elbowEdgeStyle;endArrow=none;endFill=0;fillColor=#e51400;strokeColor=#B20000;entryX=1;entryY=0.5;entryDx=0;entryDy=0;" edge="1" parent="1" target="sdBytlnqR-r4knWq5i0C-37">
          <mxGeometry relative="1" as="geometry">
            <mxPoint x="484.5" y="1189.91" as="sourcePoint" />
            <mxPoint x="610" y="1150" as="targetPoint" />
            <Array as="points">
              <mxPoint x="615" y="1170" />
            </Array>
          </mxGeometry>
        </mxCell>
        <mxCell id="sdBytlnqR-r4knWq5i0C-171" style="rounded=0;orthogonalLoop=1;jettySize=auto;html=1;edgeStyle=elbowEdgeStyle;endArrow=none;endFill=0;fillColor=#e51400;strokeColor=#2D7600;entryX=1;entryY=0.5;entryDx=0;entryDy=0;" edge="1" parent="1" target="sdBytlnqR-r4knWq5i0C-38">
          <mxGeometry relative="1" as="geometry">
            <mxPoint x="485" y="1209.91" as="sourcePoint" />
            <mxPoint x="615.5" y="1160" as="targetPoint" />
            <Array as="points">
              <mxPoint x="645" y="1176" />
            </Array>
          </mxGeometry>
        </mxCell>
        <mxCell id="sdBytlnqR-r4knWq5i0C-172" style="rounded=0;orthogonalLoop=1;jettySize=auto;html=1;edgeStyle=elbowEdgeStyle;endArrow=none;endFill=0;fillColor=#e51400;strokeColor=#D79B00;entryX=1;entryY=0.5;entryDx=0;entryDy=0;" edge="1" parent="1" target="sdBytlnqR-r4knWq5i0C-39">
          <mxGeometry relative="1" as="geometry">
            <mxPoint x="494.5" y="1259.91" as="sourcePoint" />
            <mxPoint x="654.5" y="1190" as="targetPoint" />
            <Array as="points">
              <mxPoint x="625" y="1200" />
            </Array>
          </mxGeometry>
        </mxCell>
        <mxCell id="sdBytlnqR-r4knWq5i0C-173" style="rounded=0;orthogonalLoop=1;jettySize=auto;html=1;edgeStyle=elbowEdgeStyle;endArrow=none;endFill=0;fillColor=#e51400;strokeColor=#006EAF;entryX=1;entryY=0.5;entryDx=0;entryDy=0;" edge="1" parent="1" target="sdBytlnqR-r4knWq5i0C-41">
          <mxGeometry relative="1" as="geometry">
            <mxPoint x="493.5" y="1239.91" as="sourcePoint" />
            <mxPoint x="640" y="1150" as="targetPoint" />
            <Array as="points">
              <mxPoint x="635" y="1238" />
            </Array>
          </mxGeometry>
        </mxCell>
        <mxCell id="sdBytlnqR-r4knWq5i0C-175" value="" style="rounded=0;whiteSpace=wrap;html=1;fillColor=none;" vertex="1" parent="1">
          <mxGeometry x="200" y="870" width="566.75" height="500" as="geometry" />
        </mxCell>
        <mxCell id="sdBytlnqR-r4knWq5i0C-176" value="&lt;font style=&quot;font-size: 27px;&quot;&gt;Transmitter Unit&lt;/font&gt;" style="text;html=1;align=center;verticalAlign=middle;whiteSpace=wrap;rounded=0;strokeColor=default;" vertex="1" parent="1">
          <mxGeometry x="239" y="890" width="201" height="50" as="geometry" />
        </mxCell>
        <mxCell id="sdBytlnqR-r4knWq5i0C-177" value="&lt;font style=&quot;font-size: 27px;&quot;&gt;Base Station&lt;/font&gt;" style="text;html=1;align=center;verticalAlign=middle;whiteSpace=wrap;rounded=0;strokeColor=default;" vertex="1" parent="1">
          <mxGeometry x="123.5" y="320" width="201" height="50" as="geometry" />
        </mxCell>
        <mxCell id="sdBytlnqR-r4knWq5i0C-178" value="" style="rounded=0;whiteSpace=wrap;html=1;fillColor=none;" vertex="1" parent="1">
          <mxGeometry x="78.75" y="290" width="960" height="429.5" as="geometry" />
        </mxCell>
      </root>
    </mxGraphModel>
  </diagram>
</mxfile>
